<mxfile host="app.diagrams.net" modified="2022-11-15T10:36:53.133Z" agent="5.0 (Macintosh; Intel Mac OS X 10_15_7) AppleWebKit/537.36 (KHTML, like Gecko) Chrome/107.0.0.0 Safari/537.36" etag="QTuhwMdw2D22C4Qyqt4R" version="20.5.3" type="github" pages="2">
  <diagram id="x6qn8W_bpgtAIERyVVS6" name="Page-1">
    <mxGraphModel dx="1614" dy="703" grid="0" gridSize="10" guides="1" tooltips="1" connect="1" arrows="1" fold="1" page="0" pageScale="1" pageWidth="827" pageHeight="1169" math="0" shadow="0">
      <root>
        <mxCell id="0" />
        <mxCell id="1" parent="0" />
        <mxCell id="7MongYnNp2PHCLX4djVm-3" value="" style="edgeStyle=orthogonalEdgeStyle;rounded=0;orthogonalLoop=1;jettySize=auto;html=1;" parent="1" source="7MongYnNp2PHCLX4djVm-1" target="7MongYnNp2PHCLX4djVm-2" edge="1">
          <mxGeometry relative="1" as="geometry" />
        </mxCell>
        <mxCell id="7MongYnNp2PHCLX4djVm-1" value="cassandra:9042" style="rounded=0;whiteSpace=wrap;html=1;" parent="1" vertex="1">
          <mxGeometry x="168" y="766" width="120" height="60" as="geometry" />
        </mxCell>
        <mxCell id="7MongYnNp2PHCLX4djVm-5" value="" style="edgeStyle=orthogonalEdgeStyle;rounded=0;orthogonalLoop=1;jettySize=auto;html=1;" parent="1" source="7MongYnNp2PHCLX4djVm-2" target="7MongYnNp2PHCLX4djVm-4" edge="1">
          <mxGeometry relative="1" as="geometry" />
        </mxCell>
        <mxCell id="7MongYnNp2PHCLX4djVm-8" style="edgeStyle=orthogonalEdgeStyle;rounded=0;orthogonalLoop=1;jettySize=auto;html=1;exitX=1;exitY=0;exitDx=0;exitDy=0;" parent="1" source="7MongYnNp2PHCLX4djVm-2" target="7MongYnNp2PHCLX4djVm-6" edge="1">
          <mxGeometry relative="1" as="geometry" />
        </mxCell>
        <mxCell id="7MongYnNp2PHCLX4djVm-11" style="edgeStyle=orthogonalEdgeStyle;rounded=0;orthogonalLoop=1;jettySize=auto;html=1;exitX=0;exitY=0;exitDx=0;exitDy=0;entryX=0.5;entryY=1;entryDx=0;entryDy=0;" parent="1" source="7MongYnNp2PHCLX4djVm-2" target="7MongYnNp2PHCLX4djVm-9" edge="1">
          <mxGeometry relative="1" as="geometry" />
        </mxCell>
        <mxCell id="7MongYnNp2PHCLX4djVm-20" style="edgeStyle=orthogonalEdgeStyle;rounded=0;orthogonalLoop=1;jettySize=auto;html=1;exitX=1;exitY=0;exitDx=0;exitDy=0;" parent="1" source="7MongYnNp2PHCLX4djVm-2" target="7MongYnNp2PHCLX4djVm-18" edge="1">
          <mxGeometry relative="1" as="geometry" />
        </mxCell>
        <mxCell id="7MongYnNp2PHCLX4djVm-2" value="cerberus:8080" style="rounded=0;whiteSpace=wrap;html=1;" parent="1" vertex="1">
          <mxGeometry x="168" y="626" width="120" height="60" as="geometry" />
        </mxCell>
        <mxCell id="7MongYnNp2PHCLX4djVm-15" value="" style="edgeStyle=orthogonalEdgeStyle;rounded=0;orthogonalLoop=1;jettySize=auto;html=1;" parent="1" source="7MongYnNp2PHCLX4djVm-4" target="7MongYnNp2PHCLX4djVm-14" edge="1">
          <mxGeometry relative="1" as="geometry" />
        </mxCell>
        <mxCell id="7MongYnNp2PHCLX4djVm-25" style="edgeStyle=entityRelationEdgeStyle;rounded=0;orthogonalLoop=1;jettySize=auto;html=1;exitX=1;exitY=0.75;exitDx=0;exitDy=0;entryX=0;entryY=0.75;entryDx=0;entryDy=0;startArrow=none;startFill=0;fillColor=#d5e8d4;strokeColor=#82b366;" parent="1" source="7MongYnNp2PHCLX4djVm-6" target="7MongYnNp2PHCLX4djVm-18" edge="1">
          <mxGeometry relative="1" as="geometry" />
        </mxCell>
        <mxCell id="7MongYnNp2PHCLX4djVm-26" style="edgeStyle=entityRelationEdgeStyle;rounded=0;orthogonalLoop=1;jettySize=auto;html=1;exitX=1;exitY=1;exitDx=0;exitDy=0;entryX=0;entryY=1;entryDx=0;entryDy=0;startArrow=classic;startFill=1;fillColor=#dae8fc;strokeColor=#6c8ebf;" parent="1" source="7MongYnNp2PHCLX4djVm-4" target="7MongYnNp2PHCLX4djVm-6" edge="1">
          <mxGeometry relative="1" as="geometry" />
        </mxCell>
        <mxCell id="7MongYnNp2PHCLX4djVm-27" style="edgeStyle=entityRelationEdgeStyle;rounded=0;orthogonalLoop=1;jettySize=auto;html=1;exitX=0;exitY=0.5;exitDx=0;exitDy=0;startArrow=none;startFill=0;fillColor=#fff2cc;strokeColor=#d6b656;" parent="1" source="7MongYnNp2PHCLX4djVm-4" target="7MongYnNp2PHCLX4djVm-9" edge="1">
          <mxGeometry relative="1" as="geometry" />
        </mxCell>
        <mxCell id="7MongYnNp2PHCLX4djVm-4" value="auth:3001" style="rounded=0;whiteSpace=wrap;html=1;fillColor=#dae8fc;strokeColor=#6c8ebf;" parent="1" vertex="1">
          <mxGeometry x="168" y="486" width="120" height="60" as="geometry" />
        </mxCell>
        <mxCell id="7MongYnNp2PHCLX4djVm-28" style="edgeStyle=entityRelationEdgeStyle;rounded=0;orthogonalLoop=1;jettySize=auto;html=1;exitX=0;exitY=0.75;exitDx=0;exitDy=0;entryX=1;entryY=0.75;entryDx=0;entryDy=0;startArrow=none;startFill=0;fillColor=#fff2cc;strokeColor=#d6b656;" parent="1" source="7MongYnNp2PHCLX4djVm-6" target="7MongYnNp2PHCLX4djVm-9" edge="1">
          <mxGeometry relative="1" as="geometry" />
        </mxCell>
        <mxCell id="7MongYnNp2PHCLX4djVm-29" style="edgeStyle=entityRelationEdgeStyle;rounded=0;orthogonalLoop=1;jettySize=auto;html=1;exitX=0.5;exitY=0;exitDx=0;exitDy=0;entryX=1;entryY=0.5;entryDx=0;entryDy=0;startArrow=none;startFill=0;" parent="1" source="7MongYnNp2PHCLX4djVm-6" target="7MongYnNp2PHCLX4djVm-16" edge="1">
          <mxGeometry relative="1" as="geometry" />
        </mxCell>
        <mxCell id="7MongYnNp2PHCLX4djVm-6" value="accounts:3002" style="rounded=0;whiteSpace=wrap;html=1;" parent="1" vertex="1">
          <mxGeometry x="368" y="486" width="120" height="60" as="geometry" />
        </mxCell>
        <mxCell id="7MongYnNp2PHCLX4djVm-24" style="edgeStyle=entityRelationEdgeStyle;rounded=0;orthogonalLoop=1;jettySize=auto;html=1;exitX=1;exitY=0.25;exitDx=0;exitDy=0;entryX=0;entryY=0.25;entryDx=0;entryDy=0;startArrow=classic;startFill=1;fillColor=#d5e8d4;strokeColor=#82b366;" parent="1" source="7MongYnNp2PHCLX4djVm-9" target="7MongYnNp2PHCLX4djVm-18" edge="1">
          <mxGeometry relative="1" as="geometry" />
        </mxCell>
        <mxCell id="7MongYnNp2PHCLX4djVm-9" value="access:3003" style="rounded=0;whiteSpace=wrap;html=1;fillColor=#fff2cc;strokeColor=#d6b656;" parent="1" vertex="1">
          <mxGeometry x="-32" y="486" width="120" height="60" as="geometry" />
        </mxCell>
        <mxCell id="7MongYnNp2PHCLX4djVm-17" value="" style="edgeStyle=orthogonalEdgeStyle;rounded=0;orthogonalLoop=1;jettySize=auto;html=1;" parent="1" source="7MongYnNp2PHCLX4djVm-14" target="7MongYnNp2PHCLX4djVm-16" edge="1">
          <mxGeometry relative="1" as="geometry" />
        </mxCell>
        <mxCell id="7MongYnNp2PHCLX4djVm-14" value="workflow:3005" style="rounded=0;whiteSpace=wrap;html=1;" parent="1" vertex="1">
          <mxGeometry x="168" y="346" width="120" height="60" as="geometry" />
        </mxCell>
        <mxCell id="7MongYnNp2PHCLX4djVm-16" value="governance:3004" style="rounded=0;whiteSpace=wrap;html=1;" parent="1" vertex="1">
          <mxGeometry x="168" y="206" width="120" height="60" as="geometry" />
        </mxCell>
        <mxCell id="7MongYnNp2PHCLX4djVm-21" style="edgeStyle=orthogonalEdgeStyle;rounded=0;orthogonalLoop=1;jettySize=auto;html=1;fillColor=#d5e8d4;strokeColor=#82b366;startArrow=classic;startFill=1;" parent="1" source="7MongYnNp2PHCLX4djVm-18" target="7MongYnNp2PHCLX4djVm-4" edge="1">
          <mxGeometry relative="1" as="geometry" />
        </mxCell>
        <mxCell id="7MongYnNp2PHCLX4djVm-18" value="ui:3000" style="rounded=0;whiteSpace=wrap;html=1;fillColor=#d5e8d4;strokeColor=#82b366;" parent="1" vertex="1">
          <mxGeometry x="568" y="486" width="120" height="60" as="geometry" />
        </mxCell>
      </root>
    </mxGraphModel>
  </diagram>
  <diagram name="V2" id="pLzZDtJOdsse49XH9XB7">
    <mxGraphModel dx="1614" dy="303" grid="0" gridSize="10" guides="1" tooltips="1" connect="1" arrows="1" fold="1" page="0" pageScale="1" pageWidth="827" pageHeight="1169" math="0" shadow="0">
      <root>
        <mxCell id="ZLDQlTCy_YxV7lHfcZcG-0" />
        <mxCell id="ZLDQlTCy_YxV7lHfcZcG-1" parent="ZLDQlTCy_YxV7lHfcZcG-0" />
        <mxCell id="ZLDQlTCy_YxV7lHfcZcG-2" value="" style="edgeStyle=orthogonalEdgeStyle;rounded=0;orthogonalLoop=1;jettySize=auto;html=1;" edge="1" parent="ZLDQlTCy_YxV7lHfcZcG-1" source="ZLDQlTCy_YxV7lHfcZcG-3" target="ZLDQlTCy_YxV7lHfcZcG-8">
          <mxGeometry relative="1" as="geometry" />
        </mxCell>
        <mxCell id="ZLDQlTCy_YxV7lHfcZcG-3" value="cassandra:9042" style="rounded=0;whiteSpace=wrap;html=1;" vertex="1" parent="ZLDQlTCy_YxV7lHfcZcG-1">
          <mxGeometry x="168" y="766" width="120" height="60" as="geometry" />
        </mxCell>
        <mxCell id="ZLDQlTCy_YxV7lHfcZcG-5" style="edgeStyle=orthogonalEdgeStyle;rounded=0;orthogonalLoop=1;jettySize=auto;html=1;exitX=1;exitY=0;exitDx=0;exitDy=0;" edge="1" parent="ZLDQlTCy_YxV7lHfcZcG-1" source="ZLDQlTCy_YxV7lHfcZcG-8" target="ZLDQlTCy_YxV7lHfcZcG-16">
          <mxGeometry relative="1" as="geometry" />
        </mxCell>
        <mxCell id="ZLDQlTCy_YxV7lHfcZcG-6" style="edgeStyle=orthogonalEdgeStyle;rounded=0;orthogonalLoop=1;jettySize=auto;html=1;exitX=0;exitY=0;exitDx=0;exitDy=0;entryX=0.5;entryY=1;entryDx=0;entryDy=0;" edge="1" parent="ZLDQlTCy_YxV7lHfcZcG-1" source="ZLDQlTCy_YxV7lHfcZcG-8" target="ZLDQlTCy_YxV7lHfcZcG-18">
          <mxGeometry relative="1" as="geometry" />
        </mxCell>
        <mxCell id="ZLDQlTCy_YxV7lHfcZcG-7" style="edgeStyle=orthogonalEdgeStyle;rounded=0;orthogonalLoop=1;jettySize=auto;html=1;exitX=1;exitY=0;exitDx=0;exitDy=0;" edge="1" parent="ZLDQlTCy_YxV7lHfcZcG-1" source="ZLDQlTCy_YxV7lHfcZcG-8" target="ZLDQlTCy_YxV7lHfcZcG-23">
          <mxGeometry relative="1" as="geometry" />
        </mxCell>
        <mxCell id="ZLDQlTCy_YxV7lHfcZcG-8" value="auth:8080" style="rounded=0;whiteSpace=wrap;html=1;" vertex="1" parent="ZLDQlTCy_YxV7lHfcZcG-1">
          <mxGeometry x="168" y="626" width="120" height="60" as="geometry" />
        </mxCell>
        <mxCell id="ZLDQlTCy_YxV7lHfcZcG-10" style="edgeStyle=entityRelationEdgeStyle;rounded=0;orthogonalLoop=1;jettySize=auto;html=1;exitX=1;exitY=0.75;exitDx=0;exitDy=0;entryX=0;entryY=0.75;entryDx=0;entryDy=0;startArrow=none;startFill=0;fillColor=#d5e8d4;strokeColor=#82b366;" edge="1" parent="ZLDQlTCy_YxV7lHfcZcG-1" source="ZLDQlTCy_YxV7lHfcZcG-16" target="ZLDQlTCy_YxV7lHfcZcG-23">
          <mxGeometry relative="1" as="geometry" />
        </mxCell>
        <mxCell id="ZLDQlTCy_YxV7lHfcZcG-14" style="edgeStyle=entityRelationEdgeStyle;rounded=0;orthogonalLoop=1;jettySize=auto;html=1;exitX=0;exitY=0.75;exitDx=0;exitDy=0;entryX=1;entryY=0.75;entryDx=0;entryDy=0;startArrow=none;startFill=0;fillColor=#fff2cc;strokeColor=#d6b656;" edge="1" parent="ZLDQlTCy_YxV7lHfcZcG-1" source="ZLDQlTCy_YxV7lHfcZcG-16" target="ZLDQlTCy_YxV7lHfcZcG-18">
          <mxGeometry relative="1" as="geometry" />
        </mxCell>
        <mxCell id="ZLDQlTCy_YxV7lHfcZcG-16" value="accounts:3100" style="rounded=0;whiteSpace=wrap;html=1;" vertex="1" parent="ZLDQlTCy_YxV7lHfcZcG-1">
          <mxGeometry x="368" y="486" width="120" height="60" as="geometry" />
        </mxCell>
        <mxCell id="ZLDQlTCy_YxV7lHfcZcG-17" style="edgeStyle=entityRelationEdgeStyle;rounded=0;orthogonalLoop=1;jettySize=auto;html=1;exitX=1;exitY=0.25;exitDx=0;exitDy=0;entryX=0;entryY=0.25;entryDx=0;entryDy=0;startArrow=classic;startFill=1;fillColor=#d5e8d4;strokeColor=#82b366;" edge="1" parent="ZLDQlTCy_YxV7lHfcZcG-1" source="ZLDQlTCy_YxV7lHfcZcG-18" target="ZLDQlTCy_YxV7lHfcZcG-23">
          <mxGeometry relative="1" as="geometry" />
        </mxCell>
        <mxCell id="ZLDQlTCy_YxV7lHfcZcG-18" value="access:3004" style="rounded=0;whiteSpace=wrap;html=1;fillColor=#fff2cc;strokeColor=#d6b656;" vertex="1" parent="ZLDQlTCy_YxV7lHfcZcG-1">
          <mxGeometry x="-32" y="486" width="120" height="60" as="geometry" />
        </mxCell>
        <mxCell id="ZLDQlTCy_YxV7lHfcZcG-23" value="ui:4200" style="rounded=0;whiteSpace=wrap;html=1;fillColor=#d5e8d4;strokeColor=#82b366;" vertex="1" parent="ZLDQlTCy_YxV7lHfcZcG-1">
          <mxGeometry x="568" y="486" width="120" height="60" as="geometry" />
        </mxCell>
      </root>
    </mxGraphModel>
  </diagram>
</mxfile>
